<svg id="Layer_1" data-name="Layer 1" xmlns="http://www.w3.org/2000/svg" xmlns:xlink="http://www.w3.org/1999/xlink" viewBox="0 0 350.3 348.22"><defs><linearGradient id="White_Black" x1="91.14" y1="-107.69" x2="262.78" y2="402.61" gradientUnits="userSpaceOnUse"><stop offset="0" stop-color="#fff"/><stop offset="1"/></linearGradient><linearGradient id="White_Black-2" x1="83.99" y1="-105.29" x2="255.63" y2="405.01" xlink:href="#White_Black"/><linearGradient id="White_Black-3" x1="38.31" y1="-89.92" x2="209.95" y2="420.37" xlink:href="#White_Black"/><linearGradient id="White_Black-4" x1="40.9" y1="-90.8" x2="212.55" y2="419.5" xlink:href="#White_Black"/><linearGradient id="White_Black-5" x1="39.79" y1="-90.42" x2="211.43" y2="419.88" xlink:href="#White_Black"/><linearGradient id="White_Black-6" x1="45.78" y1="-92.44" x2="217.43" y2="417.86" xlink:href="#White_Black"/><linearGradient id="White_Black-7" x1="39.84" y1="-90.44" x2="211.48" y2="419.86" xlink:href="#White_Black"/><linearGradient id="White_Black-8" x1="21.6" y1="-84.3" x2="193.25" y2="426" xlink:href="#White_Black"/><linearGradient id="White_Black-9" x1="-8.19" y1="-74.28" x2="163.45" y2="436.02" xlink:href="#White_Black"/><linearGradient id="White_Black-10" x1="-8.01" y1="-74.34" x2="163.63" y2="435.95" xlink:href="#White_Black"/><linearGradient id="White_Black-11" x1="-8.41" y1="-74.21" x2="163.23" y2="436.09" xlink:href="#White_Black"/><linearGradient id="White_Black-12" x1="-5.12" y1="-75.32" x2="166.53" y2="434.98" xlink:href="#White_Black"/><linearGradient id="White_Black-13" x1="-8.54" y1="-74.16" x2="163.11" y2="436.13" xlink:href="#White_Black"/><linearGradient id="White_Black-14" x1="-20.54" y1="-70.13" x2="151.11" y2="440.17" xlink:href="#White_Black"/><linearGradient id="White_Black-15" x1="-46.15" y1="-61.51" x2="125.5" y2="448.78" xlink:href="#White_Black"/><linearGradient id="White_Black-16" x1="-46.45" y1="-61.41" x2="125.2" y2="448.88" xlink:href="#White_Black"/><linearGradient id="White_Black-17" x1="-45.24" y1="-61.82" x2="126.4" y2="448.48" xlink:href="#White_Black"/><linearGradient id="White_Black-18" x1="-42.49" y1="-62.74" x2="129.15" y2="447.55" xlink:href="#White_Black"/><linearGradient id="White_Black-19" x1="-47.8" y1="-60.96" x2="123.84" y2="449.34" xlink:href="#White_Black"/><linearGradient id="White_Black-20" x1="-55.78" y1="-58.28" x2="115.87" y2="452.02" xlink:href="#White_Black"/><linearGradient id="White_Black-21" x1="6.94" y1="-79.37" x2="178.59" y2="430.93" xlink:href="#White_Black"/><linearGradient id="White_Black-22" x1="12.56" y1="-81.26" x2="184.21" y2="429.03" xlink:href="#White_Black"/><linearGradient id="White_Black-23" x1="15.26" y1="-82.17" x2="186.9" y2="428.12" xlink:href="#White_Black"/><linearGradient id="White_Black-24" x1="14.41" y1="-81.88" x2="186.05" y2="428.41" xlink:href="#White_Black"/><linearGradient id="White_Black-25" x1="16.41" y1="-82.56" x2="188.06" y2="427.73" xlink:href="#White_Black"/><linearGradient id="White_Black-26" x1="12.88" y1="-81.37" x2="184.53" y2="428.93" xlink:href="#White_Black"/><linearGradient id="White_Black-27" x1="15.17" y1="-82.14" x2="186.81" y2="428.16" xlink:href="#White_Black"/><linearGradient id="White_Black-28" x1="10.86" y1="-80.69" x2="182.51" y2="429.61" xlink:href="#White_Black"/><linearGradient id="White_Black-29" x1="11.63" y1="-80.95" x2="183.27" y2="429.35" xlink:href="#White_Black"/><linearGradient id="White_Black-30" x1="9.49" y1="-80.23" x2="181.13" y2="430.08" xlink:href="#White_Black"/><linearGradient id="White_Black-31" x1="9.89" y1="-80.36" x2="181.53" y2="429.94" xlink:href="#White_Black"/><linearGradient id="White_Black-32" x1="8.69" y1="-79.96" x2="180.34" y2="430.34" xlink:href="#White_Black"/><linearGradient id="White_Black-33" x1="8.94" y1="-80.04" x2="180.58" y2="430.25" xlink:href="#White_Black"/><linearGradient id="White_Black-34" x1="7.8" y1="-79.66" x2="179.45" y2="430.63" xlink:href="#White_Black"/><linearGradient id="White_Black-35" x1="18.34" y1="-83.21" x2="189.99" y2="427.09" xlink:href="#White_Black"/><linearGradient id="White_Black-36" x1="15.61" y1="-82.29" x2="187.26" y2="428.02" xlink:href="#White_Black"/><linearGradient id="White_Black-37" x1="18.39" y1="-83.22" x2="190.03" y2="427.06" xlink:href="#White_Black"/><linearGradient id="White_Black-38" x1="15.4" y1="-82.22" x2="187.05" y2="428.08" xlink:href="#White_Black"/><linearGradient id="White_Black-39" x1="16.82" y1="-82.68" x2="188.45" y2="427.57" xlink:href="#White_Black"/><linearGradient id="White_Black-40" x1="14.07" y1="-81.76" x2="185.7" y2="428.51" xlink:href="#White_Black"/><linearGradient id="White_Black-41" x1="12.14" y1="-81.11" x2="183.77" y2="429.15" xlink:href="#White_Black"/><linearGradient id="White_Black-42" x1="12.55" y1="-81.26" x2="184.2" y2="429.04" xlink:href="#White_Black"/><linearGradient id="White_Black-43" x1="9.36" y1="-80.18" x2="181.01" y2="430.1" xlink:href="#White_Black"/><linearGradient id="White_Black-44" x1="9.8" y1="-80.34" x2="181.45" y2="429.99" xlink:href="#White_Black"/><linearGradient id="White_Black-45" x1="7.48" y1="-79.56" x2="179.13" y2="430.75" xlink:href="#White_Black"/><linearGradient id="White_Black-46" x1="5.15" y1="-78.78" x2="176.81" y2="431.55" xlink:href="#White_Black"/><linearGradient id="White_Black-47" x1="8.74" y1="-79.97" x2="180.38" y2="430.31" xlink:href="#White_Black"/><linearGradient id="White_Black-48" x1="6.98" y1="-79.38" x2="178.62" y2="430.9" xlink:href="#White_Black"/><linearGradient id="White_Black-49" x1="-30.62" y1="-66.74" x2="141.02" y2="443.56" xlink:href="#White_Black"/><linearGradient id="White_Black-50" x1="-26.59" y1="-68.09" x2="145.05" y2="442.2" xlink:href="#White_Black"/><linearGradient id="White_Black-51" x1="-24.48" y1="-68.8" x2="147.16" y2="441.49" xlink:href="#White_Black"/><linearGradient id="White_Black-52" x1="-26.55" y1="-68.11" x2="145.1" y2="442.19" xlink:href="#White_Black"/><linearGradient id="White_Black-53" x1="-25.04" y1="-68.62" x2="146.61" y2="441.68" xlink:href="#White_Black"/><linearGradient id="White_Black-54" x1="-28.79" y1="-67.35" x2="142.86" y2="442.94" xlink:href="#White_Black"/><linearGradient id="White_Black-55" x1="-27.54" y1="-67.78" x2="144.11" y2="442.52" xlink:href="#White_Black"/><linearGradient id="White_Black-56" x1="-31.87" y1="-66.32" x2="139.78" y2="443.99" xlink:href="#White_Black"/><linearGradient id="White_Black-57" x1="-31.98" y1="-66.28" x2="139.66" y2="444.02" xlink:href="#White_Black"/><linearGradient id="White_Black-58" x1="-31.27" y1="-66.52" x2="140.38" y2="443.78" xlink:href="#White_Black"/><linearGradient id="White_Black-59" x1="-31.72" y1="-66.37" x2="139.93" y2="443.93" xlink:href="#White_Black"/><linearGradient id="White_Black-60" x1="-30.64" y1="-66.73" x2="141.01" y2="443.57" xlink:href="#White_Black"/><linearGradient id="White_Black-61" x1="-30.96" y1="-66.62" x2="140.68" y2="443.68" xlink:href="#White_Black"/><linearGradient id="White_Black-62" x1="-33" y1="-65.92" x2="138.63" y2="444.34" xlink:href="#White_Black"/><linearGradient id="White_Black-63" x1="-21.8" y1="-69.7" x2="149.84" y2="440.59" xlink:href="#White_Black"/><linearGradient id="White_Black-64" x1="-24.92" y1="-68.64" x2="146.71" y2="441.62" xlink:href="#White_Black"/><linearGradient id="White_Black-65" x1="-23.61" y1="-69.09" x2="148.03" y2="441.19" xlink:href="#White_Black"/><linearGradient id="White_Black-66" x1="-27.01" y1="-67.95" x2="144.63" y2="442.34" xlink:href="#White_Black"/><linearGradient id="White_Black-67" x1="-26.44" y1="-68.16" x2="145.22" y2="442.17" xlink:href="#White_Black"/><linearGradient id="White_Black-68" x1="-29.22" y1="-67.2" x2="142.42" y2="443.08" xlink:href="#White_Black"/><linearGradient id="White_Black-69" x1="-32.25" y1="-66.19" x2="139.4" y2="444.11" xlink:href="#White_Black"/><linearGradient id="White_Black-70" x1="-30.25" y1="-66.87" x2="141.4" y2="443.44" xlink:href="#White_Black"/><linearGradient id="White_Black-71" x1="-34.11" y1="-65.56" x2="137.53" y2="444.73" xlink:href="#White_Black"/><linearGradient id="White_Black-72" x1="-32.47" y1="-66.1" x2="139.16" y2="444.15" xlink:href="#White_Black"/><linearGradient id="White_Black-73" x1="-34.23" y1="-65.53" x2="137.42" y2="444.78" xlink:href="#White_Black"/><linearGradient id="White_Black-74" x1="-35.63" y1="-65.07" x2="136.03" y2="445.27" xlink:href="#White_Black"/><linearGradient id="White_Black-75" x1="-31.73" y1="-66.36" x2="139.91" y2="443.93" xlink:href="#White_Black"/><linearGradient id="White_Black-76" x1="-33.09" y1="-65.9" x2="138.55" y2="444.38" xlink:href="#White_Black"/><linearGradient id="White_Black-77" x1="-8.28" y1="-74.25" x2="163.37" y2="436.04" xlink:href="#White_Black"/><linearGradient id="White_Black-78" x1="-6.42" y1="-74.88" x2="165.22" y2="435.41" xlink:href="#White_Black"/><linearGradient id="White_Black-79" x1="-4.55" y1="-75.51" x2="167.1" y2="434.8" xlink:href="#White_Black"/><linearGradient id="White_Black-80" x1="-0.91" y1="-76.73" x2="170.74" y2="433.56" xlink:href="#White_Black"/><linearGradient id="White_Black-81" x1="0.44" y1="-77.19" x2="172.09" y2="433.12" xlink:href="#White_Black"/><linearGradient id="White_Black-82" x1="1.46" y1="-77.52" x2="173.1" y2="432.76" xlink:href="#White_Black"/><linearGradient id="White_Black-83" x1="3.8" y1="-78.31" x2="175.44" y2="431.98" xlink:href="#White_Black"/><linearGradient id="White_Black-84" x1="3.44" y1="-78.2" x2="175.09" y2="432.11" xlink:href="#White_Black"/><linearGradient id="White_Black-85" x1="5.95" y1="-79.03" x2="177.59" y2="431.25" xlink:href="#White_Black"/><linearGradient id="White_Black-86" x1="-2.21" y1="-76.29" x2="169.44" y2="434" xlink:href="#White_Black"/><linearGradient id="White_Black-87" x1="0.22" y1="-77.1" x2="171.85" y2="433.16" xlink:href="#White_Black"/><linearGradient id="White_Black-88" x1="-6.72" y1="-74.78" x2="164.92" y2="435.52" xlink:href="#White_Black"/><linearGradient id="White_Black-89" x1="-4.68" y1="-75.47" x2="166.97" y2="434.85" xlink:href="#White_Black"/><linearGradient id="White_Black-90" x1="-2.14" y1="-76.32" x2="169.5" y2="433.98" xlink:href="#White_Black"/><linearGradient id="White_Black-91" x1="-3.16" y1="-75.97" x2="168.48" y2="434.31" xlink:href="#White_Black"/><linearGradient id="White_Black-92" x1="-2.26" y1="-76.28" x2="169.39" y2="434.03" xlink:href="#White_Black"/><linearGradient id="White_Black-93" x1="2.15" y1="-77.77" x2="173.8" y2="432.55" xlink:href="#White_Black"/><linearGradient id="White_Black-94" x1="2.96" y1="-78.03" x2="174.6" y2="432.26" xlink:href="#White_Black"/><linearGradient id="White_Black-95" x1="5.54" y1="-78.91" x2="177.2" y2="431.42" xlink:href="#White_Black"/><linearGradient id="White_Black-96" x1="5.31" y1="-78.83" x2="176.96" y2="431.48" xlink:href="#White_Black"/><linearGradient id="White_Black-97" x1="8.27" y1="-79.83" x2="179.92" y2="430.49" xlink:href="#White_Black"/><linearGradient id="White_Black-98" x1="3.83" y1="-78.33" x2="175.47" y2="431.98" xlink:href="#White_Black"/><linearGradient id="White_Black-99" x1="5.42" y1="-78.86" x2="177.06" y2="431.43" xlink:href="#White_Black"/><linearGradient id="White_Black-100" x1="2.07" y1="-77.71" x2="173.7" y2="432.53" xlink:href="#White_Black"/><linearGradient id="White_Black-101" x1="0.21" y1="-77.11" x2="171.86" y2="433.19" xlink:href="#White_Black"/><linearGradient id="White_Black-102" x1="-2.6" y1="-76.16" x2="169.04" y2="434.13" xlink:href="#White_Black"/><linearGradient id="White_Black-103" x1="-3.13" y1="-75.98" x2="168.51" y2="434.3" xlink:href="#White_Black"/><linearGradient id="White_Black-104" x1="-4.41" y1="-75.55" x2="167.23" y2="434.74" xlink:href="#White_Black"/><linearGradient id="White_Black-105" x1="-37.97" y1="-64.27" x2="133.68" y2="446.03" xlink:href="#White_Black"/><linearGradient id="White_Black-106" x1="-36.86" y1="-64.64" x2="134.78" y2="445.66" xlink:href="#White_Black"/><linearGradient id="White_Black-107" x1="-35.25" y1="-65.18" x2="136.39" y2="445.12" xlink:href="#White_Black"/><linearGradient id="White_Black-108" x1="-31.33" y1="-66.5" x2="140.32" y2="443.8" xlink:href="#White_Black"/><linearGradient id="White_Black-109" x1="-30.21" y1="-66.87" x2="141.43" y2="443.42" xlink:href="#White_Black"/><linearGradient id="White_Black-110" x1="-28.6" y1="-67.41" x2="143.04" y2="442.88" xlink:href="#White_Black"/><linearGradient id="White_Black-111" x1="-26.5" y1="-68.12" x2="145.14" y2="442.18" xlink:href="#White_Black"/><linearGradient id="White_Black-112" x1="-26.22" y1="-68.21" x2="145.43" y2="442.07" xlink:href="#White_Black"/><linearGradient id="White_Black-113" x1="-23.7" y1="-69.1" x2="147.97" y2="441.27" xlink:href="#White_Black"/><linearGradient id="White_Black-114" x1="-31.97" y1="-66.28" x2="139.67" y2="444.01" xlink:href="#White_Black"/><linearGradient id="White_Black-115" x1="-29.47" y1="-67.1" x2="142.16" y2="443.15" xlink:href="#White_Black"/><linearGradient id="White_Black-116" x1="-36.59" y1="-64.73" x2="135.06" y2="445.56" xlink:href="#White_Black"/><linearGradient id="White_Black-117" x1="-34.49" y1="-65.43" x2="137.15" y2="444.86" xlink:href="#White_Black"/><linearGradient id="White_Black-118" x1="-31.6" y1="-66.41" x2="140.05" y2="443.89" xlink:href="#White_Black"/><linearGradient id="White_Black-119" x1="-34.28" y1="-65.51" x2="137.36" y2="444.79" xlink:href="#White_Black"/><linearGradient id="White_Black-120" x1="-32.95" y1="-65.97" x2="138.71" y2="444.36" xlink:href="#White_Black"/><linearGradient id="White_Black-121" x1="-28.72" y1="-67.38" x2="142.93" y2="442.92" xlink:href="#White_Black"/><linearGradient id="White_Black-122" x1="-27.41" y1="-67.83" x2="144.24" y2="442.49" xlink:href="#White_Black"/><linearGradient id="White_Black-123" x1="-24.9" y1="-68.66" x2="146.74" y2="441.64" xlink:href="#White_Black"/><linearGradient id="White_Black-124" x1="-24.71" y1="-68.71" x2="146.92" y2="441.55" xlink:href="#White_Black"/><linearGradient id="White_Black-125" x1="-21.32" y1="-69.87" x2="150.33" y2="440.44" xlink:href="#White_Black"/><linearGradient id="White_Black-126" x1="-26.07" y1="-68.28" x2="145.58" y2="442.04" xlink:href="#White_Black"/><linearGradient id="White_Black-127" x1="-23.9" y1="-68.99" x2="147.74" y2="441.29" xlink:href="#White_Black"/><linearGradient id="White_Black-128" x1="-27.51" y1="-67.78" x2="144.14" y2="442.51" xlink:href="#White_Black"/><linearGradient id="White_Black-129" x1="-29.12" y1="-67.24" x2="142.52" y2="443.05" xlink:href="#White_Black"/><linearGradient id="White_Black-130" x1="-31.73" y1="-66.37" x2="139.92" y2="443.94" xlink:href="#White_Black"/><linearGradient id="White_Black-131" x1="-32.82" y1="-65.98" x2="138.81" y2="444.28" xlink:href="#White_Black"/><linearGradient id="White_Black-132" x1="-33.91" y1="-65.62" x2="137.73" y2="444.66" xlink:href="#White_Black"/><linearGradient id="White_Black-133" x1="22.39" y1="-84.57" x2="194.03" y2="425.73" xlink:href="#White_Black"/><linearGradient id="White_Black-134" x1="32.78" y1="-88.06" x2="204.42" y2="422.23" xlink:href="#White_Black"/><linearGradient id="White_Black-135" x1="36.55" y1="-89.33" x2="208.2" y2="420.97" xlink:href="#White_Black"/><linearGradient id="White_Black-136" x1="37.08" y1="-89.51" x2="208.72" y2="420.79" xlink:href="#White_Black"/><linearGradient id="White_Black-137" x1="35.94" y1="-89.12" x2="207.58" y2="421.17" xlink:href="#White_Black"/><linearGradient id="White_Black-138" x1="40.5" y1="-90.66" x2="212.15" y2="419.63" xlink:href="#White_Black"/><linearGradient id="White_Black-139" x1="-13.48" y1="-72.5" x2="158.17" y2="437.79" xlink:href="#White_Black"/><linearGradient id="White_Black-140" x1="-4.11" y1="-75.65" x2="167.53" y2="434.64" xlink:href="#White_Black"/><linearGradient id="White_Black-141" x1="-0.71" y1="-76.8" x2="170.94" y2="433.5" xlink:href="#White_Black"/><linearGradient id="White_Black-142" x1="-0.24" y1="-76.96" x2="171.41" y2="433.34" xlink:href="#White_Black"/><linearGradient id="White_Black-143" x1="-1.27" y1="-76.61" x2="170.38" y2="433.68" xlink:href="#White_Black"/><linearGradient id="White_Black-144" x1="2.85" y1="-77.99" x2="174.49" y2="432.3" xlink:href="#White_Black"/><linearGradient id="White_Black-145" x1="80.08" y1="-103.97" x2="251.73" y2="406.32" xlink:href="#White_Black"/><linearGradient id="White_Black-146" x1="78.32" y1="-103.38" x2="249.96" y2="406.91" xlink:href="#White_Black"/><linearGradient id="White_Black-147" x1="77.9" y1="-103.24" x2="249.54" y2="407.06" xlink:href="#White_Black"/><linearGradient id="White_Black-148" x1="76.03" y1="-102.61" x2="247.68" y2="407.68" xlink:href="#White_Black"/><linearGradient id="White_Black-149" x1="77.87" y1="-103.23" x2="249.51" y2="407.07" xlink:href="#White_Black"/><linearGradient id="White_Black-150" x1="85.66" y1="-105.85" x2="257.31" y2="404.45" xlink:href="#White_Black"/><linearGradient id="White_Black-151" x1="99.53" y1="-110.52" x2="271.18" y2="399.78" xlink:href="#White_Black"/><linearGradient id="White_Black-152" x1="86.08" y1="-105.99" x2="257.72" y2="404.3" xlink:href="#White_Black"/><linearGradient id="White_Black-153" x1="92.99" y1="-108.32" x2="264.64" y2="401.99" xlink:href="#White_Black"/></defs><title>bg-couple</title><path d="M350,177.58a164.4,164.4,0,0,1-47.24,115.55,161.37,161.37,0,0,1-115.55,48.1A163.62,163.62,0,0,1,71.86,292.92,167.78,167.78,0,0,1,36.47,240,163.09,163.09,0,1,1,350,177.58Zm-.24,0A161.83,161.83,0,0,0,249,28.29,162.15,162.15,0,0,0,25.18,177.58a162.45,162.45,0,0,0,12.15,62.08A158.81,158.81,0,0,0,72.5,292.29a162.82,162.82,0,0,0,176.57,34.65,164.31,164.31,0,0,0,52.64-34.86,160.54,160.54,0,0,0,48.05-114.5Z" transform="translate(0.3 0)" fill="url(#White_Black)"/><path d="M66.54,69.32A164.34,164.34,0,0,1,181.65,21a161.33,161.33,0,0,1,115.72,47.7,163.47,163.47,0,0,1,47.4,115.71,167.52,167.52,0,0,1-12.38,62.44A163.09,163.09,0,1,1,66.54,69.32Zm.17.17A161.87,161.87,0,0,0,32.37,246.27a162.41,162.41,0,0,0,87.49,87.34,162,162,0,0,0,211.67-87.09,158.87,158.87,0,0,0,12.35-62.09A162.82,162.82,0,0,0,243.52,35.07,164.46,164.46,0,0,0,181.65,22.5a160.55,160.55,0,0,0-114.94,47Z" transform="translate(0.3 0)" fill="url(#White_Black-2)"/><path d="M67.48,68.43c8.69-8.11,4.55-20.16,4-30.41-.81-14.17,8.4-25,18-34.24.51-.5,2-2,2.2-1.92a30.5,30.5,0,0,0-.27,3.3,35,35,0,0,0,1.23,7.47c1.89,8,1.88,14.79-1.92,22.32C84.93,46.4,74,54.38,68.88,66.22c-.12.28.26.52.41.25,6-11.06,16-19.26,21.81-30.37A30,30,0,0,0,95,21.58C94.79,14.37,90.77,7.76,92.89.49a.4.4,0,0,0-.66-.38C83.92,7.78,74.84,16.33,71.67,27.59,68,40.66,78,57.36,67.34,68.28a.1.1,0,0,0,.14.15Z" transform="translate(0.3 0)" fill="url(#White_Black-3)"/><path d="M91.68,1.14a33.35,33.35,0,0,0-5.85,10c-1.91,5.28-1.67,10.68-2.71,16.12-2.11,11.16-7.79,22-11.39,32.76-.12.38.5.65.66.28,4.14-9.49,8.89-19.28,11.22-29.4,1.08-4.68,1-9.49,1.76-14.22A36.37,36.37,0,0,1,91.81,1.24c0-.08-.07-.17-.13-.1Z" transform="translate(0.3 0)" fill="url(#White_Black-4)"/><path d="M91.84,1.1a33.38,33.38,0,0,0-4.71,12.71c-1,6.91.15,13.84-1.39,20.72-1.41,6.32-4.42,11.59-8.23,16.72-3,4-4.53,8.6-7.06,12.84-.09.15.13.33.25.19,3.28-3.92,4.9-8.91,8-13a41.5,41.5,0,0,0,7-12.35A47.6,47.6,0,0,0,87.8,23.21c-.07-7.89.59-14.88,4.14-22a.06.06,0,0,0-.1-.06Z" transform="translate(0.3 0)" fill="url(#White_Black-5)"/><path d="M92.13,1.25c-3.46,7.49-1.28,15.33-1.59,23.22-.38,10.09-6.19,18.4-11.3,26.69-.16.25.21.44.38.23,5.15-6.7,10.09-14.07,11.58-22.55,1.61-9.24-2.27-18.48,1-27.55,0-.06-.08-.1-.1,0Z" transform="translate(0.3 0)" fill="url(#White_Black-6)"/><path d="M90.41,2.74a45.32,45.32,0,0,0-13,23.76c-1.2,5.69-1.6,11.52-2.56,17.26s-2.42,11.62-3.31,17.49c0,.31.39.45.48.13,2.86-9.88,3.89-20,5.33-30.17A53.22,53.22,0,0,1,90.48,2.82s0-.13-.07-.08Z" transform="translate(0.3 0)" fill="url(#White_Black-7)"/><path d="M70.74,65.43a14,14,0,0,0-.56-6.3c-2-6.07-7.25-8.75-10-14.07-2-3.87-2.63-8.5-2.57-12.88a46.44,46.44,0,0,1,2.36-13.92c-.51,1.5.21,4.84.5,6.4a29.75,29.75,0,0,0,1.69,5.89c1.58,3.88,4.31,6.55,6.25,10.08,4,7.19,4.73,16.93,2.36,24.8" transform="translate(0.3 0)" fill="url(#White_Black-8)"/><path d="M41.68,106.6C45.32,99,40.86,92,37.48,85.23A27.41,27.41,0,0,1,35,66.37a53.38,53.38,0,0,1,3.28-9.66c.32-.72,2.58-6.44,3.13-6.39-.07,0,3.83,7.62,4.3,8.33a23.4,23.4,0,0,1,4.07,17.09c-1.35,9.94-7,18.79-7.65,28.86,0,.21.34.26.37.05,1.53-10,6.74-18.9,8-28.86a24.16,24.16,0,0,0-1-11.51c-2.07-5.49-7-9.4-7.46-15.51,0-.29-.44-.46-.59-.16-4.31,8.43-9,17.81-7.73,27.57,1.34,10.47,12.4,19.35,7.79,30.36,0,.08.11.14.15.06Z" transform="translate(0.3 0)" fill="url(#White_Black-9)"/><path d="M41.32,49.57c-2.74,8-.59,14,.74,22,1.47,8.89.26,18.58.51,27.59a.29.29,0,0,0,.57,0c.49-8.2,1.35-16.83.32-25-.41-3.3-1.5-6.36-2.24-9.58a30.16,30.16,0,0,1,.23-15,.07.07,0,0,0-.13,0Z" transform="translate(0.3 0)" fill="url(#White_Black-10)"/><path d="M41.44,49.48a27.38,27.38,0,0,0,.07,11.26c1,4.35,3.12,8.35,4.07,12.72A32.27,32.27,0,0,1,45,89.2c-1.27,4.52-1.45,8.75-2.3,13.32a.13.13,0,0,0,.24.07c1.35-4,1.32-8.34,2.62-12.42a31.17,31.17,0,0,0,1.49-12.79,44.72,44.72,0,0,0-3.14-11.63,34.89,34.89,0,0,1-2.4-16.26,0,0,0,0,0-.09,0Z" transform="translate(0.3 0)" fill="url(#White_Black-11)"/><path d="M41.69,49.53c-.42,6.5,3.12,11.61,5.11,17.56,2.58,7.74.53,15.62-1,23.33a.18.18,0,0,0,.34.1c1.88-6,3.48-12.38,2.69-18.74-1-7.93-6.85-14.13-7-22.25,0-.06-.08-.06-.09,0Z" transform="translate(0.3 0)" fill="url(#White_Black-12)"/><path d="M40.82,51.11A36.36,36.36,0,0,0,37.56,72c.59,4.48,1.86,8.84,2.73,13.26,1,5,1.53,10,2.5,14.91,0,.22.41.17.39,0-.63-7.94-2.45-15.62-4.15-23.37A43.15,43.15,0,0,1,40.9,51.14s-.06-.08-.08,0Z" transform="translate(0.3 0)" fill="url(#White_Black-13)"/><path d="M43.3,103.46a11.32,11.32,0,0,0-2.15-4.57c-3.16-4-7.83-4.56-11.38-7.78a21.62,21.62,0,0,1-5.45-8.94A36.86,36.86,0,0,1,22.26,71.1c0,1.26,1.48,3.56,2.13,4.65a23.26,23.26,0,0,0,2.88,4c2.25,2.47,5,3.72,7.45,5.83a26.86,26.86,0,0,1,8.58,17.93" transform="translate(0.3 0)" fill="url(#White_Black-14)"/><path d="M25,161.17c1.65-7.45-3.44-12.83-7.89-18.11-4.14-4.91-6.54-10-6.74-16.52a46.33,46.33,0,0,1,.66-8.72c.31-1.94.44-5.57,1.49-7.18.92-1.41.28-1,1.37.73A22,22,0,0,0,17,115c4,4,7.29,7.38,8.47,13.17,2.09,10.35-2.2,20.73-.51,31.09,0,.2.37.15.36-.05-.7-9.91,2.52-19.83,1-29.68a21,21,0,0,0-4.05-10c-3.1-4-7.65-6.34-9.22-11.4a.3.3,0,0,0-.57,0c-2.1,8.39-4.33,17.65-1.48,26.14,3.23,9.63,15.72,15.63,13.81,26.85a.08.08,0,0,0,.15,0Z" transform="translate(0.3 0)" fill="url(#White_Black-15)"/><path d="M12.59,109c-.82,7.92,2.44,13,5.34,20,3.22,7.83,4.17,16.94,6.3,25.14.09.34.58.19.52-.15-1.29-7.6-2.32-15.69-5-23a86.12,86.12,0,0,0-4.09-8.29A28.2,28.2,0,0,1,12.72,109c0-.08-.12-.08-.13,0Z" transform="translate(0.3 0)" fill="url(#White_Black-16)"/><path d="M12.68,108.93c.38,8.41,5.08,13.42,8.64,20.63a30.46,30.46,0,0,1,3.05,15c-.2,4.39.51,8.3.71,12.67a.12.12,0,0,0,.24,0c.34-4.22-.44-8.41-.17-12.67A28.81,28.81,0,0,0,24,134c-2.82-9.06-10-15.28-11.21-25.06,0-.05-.08-.05-.08,0Z" transform="translate(0.3 0)" fill="url(#White_Black-17)"/><path d="M12.92,108.92c1,6,5.33,10,8.4,15,4,6.53,3.79,14.19,4,21.58a.17.17,0,0,0,.34,0c.47-6.38.58-13.13-2.06-19.1C20.74,120,14.75,115.88,13,108.9c0-.05-.09,0-.08,0Z" transform="translate(0.3 0)" fill="url(#White_Black-18)"/><path d="M12.45,110.55a35,35,0,0,0,2.17,21.59c3.2,7.65,6.64,15.3,10,22.88.09.19.41,0,.34-.15A136.83,136.83,0,0,0,17,136c-4.08-8.31-5.75-16.15-4.49-25.38,0-.06-.07-.08-.08,0Z" transform="translate(0.3 0)" fill="url(#White_Black-19)"/><path d="M25.82,158a10.57,10.57,0,0,0-2.94-3.72c-3.74-3-8.14-2.52-12.06-4.72a20.26,20.26,0,0,1-6.89-7,34.44,34.44,0,0,1-4.23-9.7c.29,1.15,2.11,2.95,2.93,3.81a23,23,0,0,0,3.48,3c2.58,1.78,5.39,2.34,8.06,3.75A25.28,25.28,0,0,1,25.82,158" transform="translate(0.3 0)" fill="url(#White_Black-20)"/><path d="M55,81.88c7.49-5.79,7-17.46,3.87-25.46a.16.16,0,0,0-.32.08c1.68,8.44,4,18.88-3.62,25.27-.06,0,0,.15.07.11Z" transform="translate(0.3 0)" fill="url(#White_Black-21)"/><path d="M60.7,71.17c.84-2.87,1.7-6,3.48-8.46.09-.12-.09-.3-.21-.21-2.38,1.68-2.92,6-3.38,8.64a.06.06,0,0,0,.11,0Z" transform="translate(0.3 0)" fill="url(#White_Black-22)"/><path d="M62.22,66.21a11.85,11.85,0,0,1,5-2.76.1.1,0,0,0,0-.19,6.29,6.29,0,0,0-5.12,2.84.09.09,0,0,0,.15.11Z" transform="translate(0.3 0)" fill="url(#White_Black-23)"/><path d="M62.61,64.92a12,12,0,0,0-.23-7.75c-.06-.14-.3-.07-.29.08.12,1.28.46,2.52.55,3.81a35.35,35.35,0,0,1-.09,3.85,0,0,0,0,0,.06,0Z" transform="translate(0.3 0)" fill="url(#White_Black-24)"/><path d="M62.94,61.44a10.1,10.1,0,0,1,2.57-3.66.14.14,0,0,0-.17-.22,5.08,5.08,0,0,0-2.47,3.86,0,0,0,0,0,.07,0Z" transform="translate(0.3 0)" fill="url(#White_Black-25)"/><path d="M60,62.62c.84-2.46,1.24-5.55,0-8-.05-.1-.18,0-.16.07.4,2.77.81,5.11,0,7.86a.06.06,0,0,0,.11,0Z" transform="translate(0.3 0)" fill="url(#White_Black-26)"/><path d="M62.61,54.29a5.94,5.94,0,0,0-2,3.49c0,.12.15.17.17,0a7.31,7.31,0,0,1,1.83-3.5,0,0,0,1,0,0,0Z" transform="translate(0.3 0)" fill="url(#White_Black-27)"/><path d="M59.09,58.51a4.87,4.87,0,0,0-4-3.69c-.07,0-.11.09-.06.14a16.85,16.85,0,0,0,1.89,1.09A4.87,4.87,0,0,1,59,58.54c0,.07.11,0,.1,0Z" transform="translate(0.3 0)" fill="url(#White_Black-28)"/><path d="M57.34,56.22c-.25-1.44-.3-2.88-.48-4.33a.09.09,0,0,0-.18,0,13.42,13.42,0,0,0,.54,4.36.06.06,0,1,0,.12,0Z" transform="translate(0.3 0)" fill="url(#White_Black-29)"/><path d="M60.34,65a9.24,9.24,0,0,0-2.23-3.21,4.28,4.28,0,0,0-3.2-1.64.14.14,0,0,0,0,.27,9.35,9.35,0,0,1,5.35,4.63.07.07,0,0,0,.12,0Z" transform="translate(0.3 0)" fill="url(#White_Black-30)"/><path d="M58,61.87a36.78,36.78,0,0,0-1.44-3.56.11.11,0,0,0-.2.08,37.82,37.82,0,0,0,1.51,3.53c0,.08.16,0,.13-.05Z" transform="translate(0.3 0)" fill="url(#White_Black-31)"/><path d="M60.59,69.86a2.73,2.73,0,0,0-1.15-2.7,14.27,14.27,0,0,0-3.69-2.3c-.13,0-.21.15-.09.22,1.6,1,5.18,2.41,4.82,4.75,0,.07.09.1.11,0Z" transform="translate(0.3 0)" fill="url(#White_Black-32)"/><path d="M58.68,66.65a9.48,9.48,0,0,0-1.52-2.86c-.1-.11-.24,0-.19.14.44,1,1.11,1.83,1.61,2.77,0,0,.12,0,.1,0Z" transform="translate(0.3 0)" fill="url(#White_Black-33)"/><path d="M58.36,62.39a4.08,4.08,0,0,0-2.54-.15,8.61,8.61,0,0,0-2.71.83.11.11,0,0,0,.09.2c.7-.21,1.4-.45,2.12-.61s2.15-.59,3-.19c0,0,.1,0,0-.08Z" transform="translate(0.3 0)" fill="url(#White_Black-34)"/><path d="M68.19,64l-.47.18L67,63.87l.08.08c-.06-.4-.11-.8-.16-1.2l-.08.1,1.09-.45-.13,0,.69.91s0-.09,0-.13c-.09-1-1.59-1.34-1.81-.25l0,.13A1,1,0,0,0,67,64.1,1.16,1.16,0,1,0,67.3,62l-.13,0c-.42.17-.9.58-.83,1.1v.13a1.09,1.09,0,0,0,1.84.76Z" transform="translate(0.3 0)" fill="url(#White_Black-35)"/><path d="M64.26,63.12a.78.78,0,0,0,0-1.55.78.78,0,0,0,0,1.55Z" transform="translate(0.3 0)" fill="url(#White_Black-36)"/><path d="M65.76,59.34a1.73,1.73,0,0,0,0-3.46,1.73,1.73,0,0,0,0,3.46Z" transform="translate(0.3 0)" fill="url(#White_Black-37)"/><path d="M61.55,57.5l0,.06c.8,1,2.33-.88.84-1.45l-.06,0c-.87-.33-1.29.84-.82,1.42Z" transform="translate(0.3 0)" fill="url(#White_Black-38)"/><path d="M62.86,54.86a.68.68,0,0,0,0-1.36.68.68,0,0,0,0,1.36Z" transform="translate(0.3 0)" fill="url(#White_Black-39)"/><path d="M60.46,54c-.65-.55-1.7.14-1.23.95.6,1,2.09-.24,1.23-.95Z" transform="translate(0.3 0)" fill="url(#White_Black-40)"/><path d="M56.78,52.57a1,1,0,0,0,0-1.92,1,1,0,0,0,0,1.92Z" transform="translate(0.3 0)" fill="url(#White_Black-41)"/><path d="M58.79,57a.76.76,0,0,0,0-1.52.76.76,0,0,0,0,1.52Z" transform="translate(0.3 0)" fill="url(#White_Black-42)"/><path d="M54.74,56.28a1.55,1.55,0,0,0,0-3.1,1.55,1.55,0,0,0,0,3.1Z" transform="translate(0.3 0)" fill="url(#White_Black-43)"/><path d="M56.39,58.74a.56.56,0,0,0,0-1.11.56.56,0,0,0,0,1.11Z" transform="translate(0.3 0)" fill="url(#White_Black-44)"/><path d="M55,59.82c.06.14.11.29.17.43l-.36.47-.18,0-.59-.25c-.06-.16-.11-.33-.17-.49l.41-.54-.13.07,1.1.14-.1-.08.24.9a.59.59,0,0,1,0-.13l-.66.65.13,0L54,60.76l.08.11c-.08-.31-.16-.62-.25-.93l.42-.47.76.1.17.19c0,.25.06.51.1.76l0-.13c.22-1-1.26-1.79-1.77-.74a1.16,1.16,0,1,0,1.81-.23,1,1,0,0,0-.92-.24l-.13,0a1,1,0,0,0-.69.91,1.05,1.05,0,0,0,.59,1,.94.94,0,0,0,1.1-.14,1,1,0,0,0-.95-1.82c-1,.35-.82,2,.31,1.87a.67.67,0,0,0,.67-.67.61.61,0,0,0-.28-.54Z" transform="translate(0.3 0)" fill="url(#White_Black-45)"/><path d="M52.94,64.35a1.06,1.06,0,0,0,0-2.11,1.06,1.06,0,0,0,0,2.11Z" transform="translate(0.3 0)" fill="url(#White_Black-46)"/><path d="M57.05,64.06a.42.42,0,0,0,0-.84.42.42,0,0,0,0,.84Z" transform="translate(0.3 0)" fill="url(#White_Black-47)"/><path d="M55.57,66.41a1.33,1.33,0,0,0,0-2.66,1.33,1.33,0,0,0,0,2.66Z" transform="translate(0.3 0)" fill="url(#White_Black-48)"/><path d="M32.18,128.73c5.07-8,.64-18.82-5.08-25.27-.12-.14-.35,0-.25.2,4.46,7.37,10.23,16.38,5.21,25,0,.07.07.14.12.07Z" transform="translate(0.3 0)" fill="url(#White_Black-49)"/><path d="M33.89,116.73c-.18-3-.45-6.23.39-9.13,0-.18-.19-.26-.29-.12-1.67,2.4-.68,6.59-.21,9.26a.06.06,0,0,0,.11,0Z" transform="translate(0.3 0)" fill="url(#White_Black-50)"/><path d="M33.62,111.55a12,12,0,0,1,3.76-4.3c.08-.06,0-.22-.08-.18a6.27,6.27,0,0,0-3.84,4.41c0,.1.11.17.16.07Z" transform="translate(0.3 0)" fill="url(#White_Black-51)"/><path d="M33.55,110.2a12,12,0,0,0-2.84-7.2c-.13-.13-.31,0-.24.19.51,1.09,1.2,2.09,1.71,3.19a32.53,32.53,0,0,1,1.32,3.82s0,0,0,0Z" transform="translate(0.3 0)" fill="url(#White_Black-52)"/><path d="M32.68,106.8a10.45,10.45,0,0,1,1.16-4.3c.07-.13-.11-.29-.21-.16a5,5,0,0,0-1,4.47s.07,0,.07,0Z" transform="translate(0.3 0)" fill="url(#White_Black-53)"/><path d="M30.3,108.94c0-2.58-.71-5.67-2.67-7.5a.09.09,0,0,0-.14.11c1.31,2.47,2.52,4.51,2.7,7.39a.06.06,0,0,0,.11,0Z" transform="translate(0.3 0)" fill="url(#White_Black-54)"/><path d="M29.94,100.2a6,6,0,0,0-.66,4c0,.1.19.08.18,0a7.36,7.36,0,0,1,.52-3.93s0-.06,0,0Z" transform="translate(0.3 0)" fill="url(#White_Black-55)"/><path d="M28.07,105.38a4.91,4.91,0,0,0-5-2.13.08.08,0,0,0,0,.16c.82.28,1.71.24,2.55.48A4.71,4.71,0,0,1,28,105.44s.12,0,.09-.06Z" transform="translate(0.3 0)" fill="url(#White_Black-56)"/><path d="M25.64,103.82c-.73-1.27-1.27-2.62-1.93-3.92a.09.09,0,0,0-.17.07,13.26,13.26,0,0,0,2,3.91.06.06,0,0,0,.11-.06Z" transform="translate(0.3 0)" fill="url(#White_Black-57)"/><path d="M31.45,111.06c-1.38-1.66-4.53-3.58-6.74-2.7-.13,0-.13.28,0,.27a9.38,9.38,0,0,1,6.61,2.52.06.06,0,1,0,.09-.09Z" transform="translate(0.3 0)" fill="url(#White_Black-58)"/><path d="M28.14,108.9c-.83-1-1.63-2-2.55-2.84-.11-.1-.24,0-.16.16.8,1,1.72,1.87,2.6,2.78a.07.07,0,0,0,.11-.1Z" transform="translate(0.3 0)" fill="url(#White_Black-59)"/><path d="M33.34,115.52c-.35-2.47-4.27-3-6.24-3-.14,0-.17.21,0,.24,1.9.38,5.67.52,6.17,2.83,0,.07.12,0,.11,0Z" transform="translate(0.3 0)" fill="url(#White_Black-60)"/><path d="M30.45,113.16A9.85,9.85,0,0,0,28.06,111a.12.12,0,0,0-.15.19c.74.76,1.67,1.35,2.46,2.06a.06.06,0,0,0,.08-.08Z" transform="translate(0.3 0)" fill="url(#White_Black-61)"/><path d="M28.7,109.27a3.88,3.88,0,0,0-2.25.63A8.15,8.15,0,0,0,24,111.69c-.08.09,0,.25.13.17.63-.47,1.25-1,1.91-1.38a4.82,4.82,0,0,1,2.64-1.12s.06-.09,0-.09Z" transform="translate(0.3 0)" fill="url(#White_Black-62)"/><path d="M38.44,107.52l-.41.26-.82-.11.11.06c-.16-.37-.31-.75-.46-1.12,0,0,0,.08,0,.12l.67-.67-.12,0,1.06.43-.06-.11c-.48-1-1.82-.23-1.68.71a.69.69,0,0,0,0,.13.9.9,0,0,0,.66.66c1.4.19,1.91-1.31.81-2.14a1.14,1.14,0,0,0-1.37.18l-.1.09a1.16,1.16,0,0,0-.18,1.38l.06.11a1.08,1.08,0,0,0,1.85,0Z" transform="translate(0.3 0)" fill="url(#White_Black-63)"/><path d="M34.23,108a.78.78,0,0,0,0-1.55.78.78,0,0,0,0,1.55Z" transform="translate(0.3 0)" fill="url(#White_Black-64)"/><path d="M34,104a1.73,1.73,0,0,0,0-3.46A1.73,1.73,0,0,0,34,104Z" transform="translate(0.3 0)" fill="url(#White_Black-65)"/><path d="M30,103.55l.06,0c1.21.73,1.9-1.58.44-1.61h-.07a.85.85,0,0,0-.43,1.58Z" transform="translate(0.3 0)" fill="url(#White_Black-66)"/><path d="M30.13,100.7a.69.69,0,0,0,0-1.37.69.69,0,0,0,0,1.37Z" transform="translate(0.3 0)" fill="url(#White_Black-67)"/><path d="M27.7,100.63c-.85-.3-1.36,1-.61,1.43a.78.78,0,1,0,.61-1.43Z" transform="translate(0.3 0)" fill="url(#White_Black-68)"/><path d="M23.54,100.63a1,1,0,0,0,0-1.92,1,1,0,0,0,0,1.92Z" transform="translate(0.3 0)" fill="url(#White_Black-69)"/><path d="M27,104.06a.76.76,0,0,0,0-1.51.76.76,0,0,0,0,1.51Z" transform="translate(0.3 0)" fill="url(#White_Black-70)"/><path d="M22.69,104.84a1.55,1.55,0,0,0,0-3.09,1.55,1.55,0,0,0,0,3.09Z" transform="translate(0.3 0)" fill="url(#White_Black-71)"/><path d="M25.42,106.54a.56.56,0,0,0,0-1.11.56.56,0,0,0,0,1.11Z" transform="translate(0.3 0)" fill="url(#White_Black-72)"/><path d="M24.72,108c-.08,0-.07,0,0,0l.22.53,0,.13-.48.37.1,0-.64-.08-.26-.45.26-.63-.1.11.88-.24-.13,0,.65.64,0-.13c-.14.36-.28.71-.43,1.06l.12-.06h-1l.11.06-.47-.82c.22-.24.45-.47.67-.7l.7.29.14.23c-.17-1.17-1.81-.73-1.91.26a1.15,1.15,0,1,0,1.72-1,1,1,0,0,0-1.15.14l-.11.09a1,1,0,0,0-.14,1.14,1,1,0,0,0,1,.59.89.89,0,0,0,.79-.45c.58-1-.62-2.31-1.54-1.41a1,1,0,0,0,1.1,1.56.69.69,0,0,0,.24-.92.53.53,0,0,0-.35-.3Z" transform="translate(0.3 0)" fill="url(#White_Black-73)"/><path d="M23.92,113a1.06,1.06,0,0,0,0-2.11,1.06,1.06,0,0,0,0,2.11Z" transform="translate(0.3 0)" fill="url(#White_Black-74)"/><path d="M27.89,111.31a.42.42,0,0,0,0-.84.42.42,0,0,0,0,.84Z" transform="translate(0.3 0)" fill="url(#White_Black-75)"/><path d="M27,114.07a1.33,1.33,0,0,0,0-2.66,1.33,1.33,0,0,0,0,2.66Z" transform="translate(0.3 0)" fill="url(#White_Black-76)"/><path d="M39.85,108.23c3-9.47,13.78-11.08,22.2-12.64a.16.16,0,0,0,0-.32c-8.53-.12-19.76,3.89-22.28,12.93,0,.08.09.11.12,0Z" transform="translate(0.3 0)" fill="url(#White_Black-77)"/><path d="M47.65,99.06a37.39,37.39,0,0,0,4.19-3,6.44,6.44,0,0,0,2.6-3.32.15.15,0,0,0-.28-.12c-1.56,2.55-4.24,4.51-6.58,6.33,0,0,0,.12.07.09Z" transform="translate(0.3 0)" fill="url(#White_Black-78)"/><path d="M51.8,95.81A6.31,6.31,0,0,0,52.57,90c0-.1-.21-.1-.2,0a12.08,12.08,0,0,1-.73,5.68c0,.11.11.15.16.07Z" transform="translate(0.3 0)" fill="url(#White_Black-79)"/><path d="M52.73,94.94a31.61,31.61,0,0,1,3.76-1.55c1.16-.35,2.36-.49,3.52-.83a.15.15,0,0,0,0-.3A11.87,11.87,0,0,0,52.7,94.9s0,0,0,0Z" transform="translate(0.3 0)" fill="url(#White_Black-80)"/><path d="M55.86,93.36a5,5,0,0,0,2.67-3.7.13.13,0,0,0-.26-.07,10.27,10.27,0,0,1-2.45,3.71s0,.08,0,.06Z" transform="translate(0.3 0)" fill="url(#White_Black-81)"/><path d="M55.88,96.58c2.28-1.79,4.6-2.2,7.32-2.87a.09.09,0,0,0,0-.18c-2.65-.26-5.43,1.3-7.37,3-.06,0,0,.12.08.08Z" transform="translate(0.3 0)" fill="url(#White_Black-82)"/><path d="M62.54,91a7.23,7.23,0,0,1-2.58,3c-.1.07,0,.22.09.16A6,6,0,0,0,62.59,91s0,0-.05,0Z" transform="translate(0.3 0)" fill="url(#White_Black-83)"/><path d="M60,95.92a4.8,4.8,0,0,1,2.85.82c.68.46,1.21,1.13,1.93,1.52a.08.08,0,0,0,.11-.11,4.88,4.88,0,0,0-4.9-2.34.06.06,0,0,0,0,.11Z" transform="translate(0.3 0)" fill="url(#White_Black-84)"/><path d="M62.73,96.72A13.13,13.13,0,0,0,67,95.62c.1-.05,0-.19-.07-.17-1.41.36-2.78.86-4.22,1.15-.06,0-.05.13,0,.12Z" transform="translate(0.3 0)" fill="url(#White_Black-85)"/><path d="M53.44,97.17a9.33,9.33,0,0,1,6.27,3.29c.09.11.27,0,.23-.13-.78-2.26-4.36-3.36-6.5-3.29-.09,0-.08.12,0,.13Z" transform="translate(0.3 0)" fill="url(#White_Black-86)"/><path d="M57.25,98.24a37.48,37.48,0,0,0,3.82.1.11.11,0,0,0,0-.22c-1.27-.11-2.55,0-3.82,0-.09,0-.09.14,0,.15Z" transform="translate(0.3 0)" fill="url(#White_Black-87)"/><path d="M48.9,98.68c2.07-1.16,4.71,1.61,6.21,2.75.11.08.24-.09.15-.19-1.37-1.44-4.33-4-6.41-2.66-.06,0,0,.13,0,.1Z" transform="translate(0.3 0)" fill="url(#White_Black-88)"/><path d="M52.53,99.29c1.06.13,2.12.43,3.18.48.14,0,.15-.19,0-.23a9.64,9.64,0,0,0-3.21-.36c-.07,0-.06.1,0,.11Z" transform="translate(0.3 0)" fill="url(#White_Black-89)"/><path d="M56.55,98a4.51,4.51,0,0,1,.87,2.53c.14.83.19,1.67.26,2.52a.11.11,0,0,0,.22,0,8.27,8.27,0,0,0-.26-3,4,4,0,0,0-1-2.14s-.11,0-.07.06Z" transform="translate(0.3 0)" fill="url(#White_Black-90)"/><path d="M52.77,90.83l.13,0a1.17,1.17,0,0,0,.83-1.1v-.14a1.14,1.14,0,0,0-.83-1.09c-1.09-.22-2.18,1-1.15,1.92a1,1,0,0,0,1.14.15l.11-.07a.93.93,0,0,0-.71-1.69l-.13,0,1.07.43-.07-.11v1l.07-.11-1.13.46.12,0-.75-.75c.06-.39.05-.47,0-.24-.3.8.59,1.51,1.32,1.32Z" transform="translate(0.3 0)" fill="url(#White_Black-91)"/><path d="M54.48,93.19a.78.78,0,0,0,0-1.55.78.78,0,0,0,0,1.55Z" transform="translate(0.3 0)" fill="url(#White_Black-92)"/><path d="M58.34,91a1.73,1.73,0,0,0,0-3.46,1.73,1.73,0,0,0,0,3.46Z" transform="translate(0.3 0)" fill="url(#White_Black-93)"/><path d="M60.93,91.78l0,0c-.93-1-2.28,1-.84,1.44l.06,0a.85.85,0,0,0,.83-1.41Z" transform="translate(0.3 0)" fill="url(#White_Black-94)"/><path d="M62.6,91.4a.69.69,0,0,0,0-1.37.69.69,0,0,0,0,1.37Z" transform="translate(0.3 0)" fill="url(#White_Black-95)"/><path d="M64.07,93.4a.79.79,0,0,0-1.54.2c0,1.14,1.84.92,1.54-.2Z" transform="translate(0.3 0)" fill="url(#White_Black-96)"/><path d="M67.22,96.38a1,1,0,0,0,0-1.91,1,1,0,0,0,0,1.91Z" transform="translate(0.3 0)" fill="url(#White_Black-97)"/><path d="M62.21,96a.76.76,0,0,0,0-1.51.76.76,0,0,0,0,1.51Z" transform="translate(0.3 0)" fill="url(#White_Black-98)"/><path d="M65.07,100a1.55,1.55,0,0,0,0-3.09,1.55,1.55,0,0,0,0,3.09Z" transform="translate(0.3 0)" fill="url(#White_Black-99)"/><path d="M61.24,98.76a.56.56,0,0,0,0-1.11.56.56,0,0,0,0,1.11Z" transform="translate(0.3 0)" fill="url(#White_Black-100)"/><path d="M59.76,100h-.07a.69.69,0,0,0-.47.83,1,1,0,0,0,1.89-.25c.07-1.31-1.74-1.27-2.1-.18a.92.92,0,0,0,.24.89,1.06,1.06,0,0,0,1.13.28,1,1,0,0,0,.69-.9s0-.09,0-.14a.94.94,0,0,0-.47-.82,1.15,1.15,0,1,0,.28,1.81c.74-.77-.23-2.19-1.18-1.53l-.1.07.76-.1.21.14c.1.23.19.47.29.7l0-.26-.29.69.08-.07-.94.25.13,0-.66-.66,0,.13.43-1.07-.11.07h.93l-.12-.06.45.78s0-.1,0-.15l-.26.63.13-.1-.85.23.21,0-.5-.38,0,.1c0-.21-.05-.42-.08-.63l.07-.1.53-.22c.25,0-.26-.08-.35-.05Z" transform="translate(0.3 0)" fill="url(#White_Black-101)"/><path d="M57.75,104.34a1.06,1.06,0,0,0,0-2.11,1.06,1.06,0,0,0,0,2.11Z" transform="translate(0.3 0)" fill="url(#White_Black-102)"/><path d="M55.93,100a.42.42,0,0,0,0-.83.42.42,0,0,0,0,.83Z" transform="translate(0.3 0)" fill="url(#White_Black-103)"/><path d="M55.14,102.82a1.33,1.33,0,0,0,0-2.66,1.33,1.33,0,0,0,0,2.66Z" transform="translate(0.3 0)" fill="url(#White_Black-104)"/><path d="M25.15,162.14c1-11,11.05-14.69,20.1-17.6.19-.06.17-.38,0-.37-9.57.82-19.69,7.75-20.2,18,0,.09.14.09.15,0Z" transform="translate(0.3 0)" fill="url(#White_Black-105)"/><path d="M31.21,150.21A35.67,35.67,0,0,0,35,146a7,7,0,0,0,1.89-4.17.17.17,0,0,0-.34-.05c-1.1,3.12-3.32,5.8-5.4,8.32-.05.06,0,.14.08.08Z" transform="translate(0.3 0)" fill="url(#White_Black-106)"/><path d="M34.8,145.85a8.65,8.65,0,0,0-.45-7.09c-.06-.12-.24,0-.21.09a18.06,18.06,0,0,1,.46,6.94.1.1,0,0,0,.2.06Z" transform="translate(0.3 0)" fill="url(#White_Black-107)"/><path d="M35.55,144.71a27.43,27.43,0,0,1,3.34-2.19c1.18-.6,2.46-.91,3.66-1.46.16-.07.08-.34-.09-.33-2.51.13-5.4,2-6.94,3.93,0,0,0,.07,0,.05Z" transform="translate(0.3 0)" fill="url(#White_Black-108)"/><path d="M38.45,142.47a5.73,5.73,0,0,0,2-4.78c0-.16-.27-.23-.3,0a11.69,11.69,0,0,1-1.73,4.77s0,.08.07.05Z" transform="translate(0.3 0)" fill="url(#White_Black-109)"/><path d="M39.14,146.38a11.41,11.41,0,0,1,3.13-2.74,24.46,24.46,0,0,1,3.77-1.5.1.1,0,0,0,0-.2c-2.82,0-5.41,2.22-7,4.37,0,.05.05.12.1.07Z" transform="translate(0.3 0)" fill="url(#White_Black-110)"/><path d="M44.79,138.89a7.73,7.73,0,0,1-2,3.89c-.09.1,0,.24.14.15a6.49,6.49,0,0,0,1.94-4s-.05-.05-.06,0Z" transform="translate(0.3 0)" fill="url(#White_Black-111)"/><path d="M43.2,145.16a4.68,4.68,0,0,1,3.35.87,17,17,0,0,0,2,1.47.09.09,0,0,0,.12-.13A5.26,5.26,0,0,0,43.17,145a.06.06,0,0,0,0,.12Z" transform="translate(0.3 0)" fill="url(#White_Black-112)"/><path d="M46.23,145.84a11.78,11.78,0,0,0,4.14-1.76.11.11,0,0,0-.11-.18c-1.36.6-2.66,1.32-4.07,1.8-.09,0,0,.17,0,.14Z" transform="translate(0.3 0)" fill="url(#White_Black-113)"/><path d="M36.74,147.34a10.31,10.31,0,0,1,7.14,3.34c.13.13.31,0,.25-.19-1.09-2.41-5-3.57-7.39-3.3-.09,0-.09.15,0,.15Z" transform="translate(0.3 0)" fill="url(#White_Black-114)"/><path d="M40.89,148.25a37.46,37.46,0,0,0,4-.28c.14,0,.11-.24,0-.24a37.19,37.19,0,0,0-3.94.35c-.1,0-.1.17,0,.17Z" transform="translate(0.3 0)" fill="url(#White_Black-115)"/><path d="M32.42,149.63c1.92-1.67,5.37,1.63,6.94,2.69.13.09.27-.1.16-.21a14.06,14.06,0,0,0-4.54-3,2.33,2.33,0,0,0-2.65.38.06.06,0,0,0,.09.09Z" transform="translate(0.3 0)" fill="url(#White_Black-116)"/><path d="M36.27,150c1.11,0,2.24.28,3.35.25a.13.13,0,0,0,0-.26,9.2,9.2,0,0,0-3.39-.12c-.08,0-.08.13,0,.13Z" transform="translate(0.3 0)" fill="url(#White_Black-117)"/><path d="M40.13,148c.87.73,1.16,2.14,1.49,3.19s.5,1.89.74,2.84c0,.13.26.11.25,0a11.87,11.87,0,0,0-1-3.7,5.3,5.3,0,0,0-1.47-2.38s-.11,0-.06.08Z" transform="translate(0.3 0)" fill="url(#White_Black-118)"/><path d="M34.83,139.55l.12-.07a1.33,1.33,0,0,0,.59-1.45c0-.05,0-.11,0-.16a1.23,1.23,0,0,0-.88-.88,1.29,1.29,0,0,0-1,2.34,1.08,1.08,0,0,0,1.28-.16l.1-.1c.87-.84-.24-2.15-1.26-1.63l-.12.07,1.45.38-.09-.13c0,.28.07.56.1.83l.05-.15-1.37.78.11,0-.71-.55c0-.18-.06-.35-.1-.53a1.24,1.24,0,0,0,1.8,1.38Z" transform="translate(0.3 0)" fill="url(#White_Black-119)"/><path d="M36.82,142.32a.86.86,0,0,0,0-1.71.86.86,0,0,0,0,1.71Z" transform="translate(0.3 0)" fill="url(#White_Black-120)"/><path d="M40.12,139.22c2.51,0,2.52-3.9,0-3.9s-2.51,3.9,0,3.9Z" transform="translate(0.3 0)" fill="url(#White_Black-121)"/><path d="M43.5,140.15l-.06-.05c-1.15-1.14-2.5,1.21-.95,1.63l.08,0a1,1,0,0,0,.93-1.6Z" transform="translate(0.3 0)" fill="url(#White_Black-122)"/><path d="M44.8,139.35a.77.77,0,0,0,0-1.54.77.77,0,0,0,0,1.54Z" transform="translate(0.3 0)" fill="url(#White_Black-123)"/><path d="M46.92,141.56a.89.89,0,0,0-1.61.69c.35,1.28,2.34.34,1.61-.69Z" transform="translate(0.3 0)" fill="url(#White_Black-124)"/><path d="M50.56,144.9a1.08,1.08,0,0,0,0-2.16,1.08,1.08,0,0,0,0,2.16Z" transform="translate(0.3 0)" fill="url(#White_Black-125)"/><path d="M45.37,145a.86.86,0,0,0,0-1.71.86.86,0,0,0,0,1.71Z" transform="translate(0.3 0)" fill="url(#White_Black-126)"/><path d="M49,149.47A1.75,1.75,0,0,0,49,146a1.75,1.75,0,0,0,0,3.49Z" transform="translate(0.3 0)" fill="url(#White_Black-127)"/><path d="M45,148.43a.63.63,0,0,0,0-1.26.63.63,0,0,0,0,1.26Z" transform="translate(0.3 0)" fill="url(#White_Black-128)"/><path d="M43.81,150.22l-.08,0a.74.74,0,0,0-.34.85,1.07,1.07,0,1,0,1.91-.93c-.89-1.54-3.17.43-1.77,1.54a1.11,1.11,0,0,0,1.27.16l.12-.06a1.08,1.08,0,0,0,.48-1.2,1.24,1.24,0,0,0-.91-1,1.07,1.07,0,0,0-1.05.27,1.39,1.39,0,0,0,1,2.39,1.1,1.1,0,0,0,1-.55l.07-.12a1.1,1.1,0,0,0-1.72-1.33l-.1.1.79-.33h-.13l.79.33c0,.28.06.55.08.83l-1.21.5.14,0-.75-.74,0,.15c.09-.34.19-.68.28-1l-.11.09,1.27-.16-.15-.07.51.89a1.23,1.23,0,0,0,0-.19c-.09.24-.19.48-.29.71l-.61.14-.56-.44c0-.16,0-.32,0-.49l.73-.42c.19,0,0,0-.12-.05a.74.74,0,0,0-.46.06Z" transform="translate(0.3 0)" fill="url(#White_Black-129)"/><path d="M42.5,155.51a1.19,1.19,0,0,0,0-2.38,1.19,1.19,0,0,0,0,2.38Z" transform="translate(0.3 0)" fill="url(#White_Black-130)"/><path d="M39.83,150.5a.47.47,0,0,0,0-.94.47.47,0,0,0,0,.94Z" transform="translate(0.3 0)" fill="url(#White_Black-131)"/><path d="M39.43,153.92a1.5,1.5,0,0,0,0-3,1.5,1.5,0,0,0,0,3Z" transform="translate(0.3 0)" fill="url(#White_Black-132)"/><path d="M53.64,83.9a14.19,14.19,0,0,1,5.91-2.26c6.33-.86,11,2.7,17,2.87,4.37.13,8.79-1.36,12.7-3.33A46.68,46.68,0,0,0,100.79,73c-1.13,1.11-4.44,1.92-6,2.35a30,30,0,0,1-6,1.06c-4.18.27-7.78-1-11.8-1.22-8.21-.42-17.29,3.17-23.34,8.74" transform="translate(0.3 0)" fill="url(#White_Black-133)"/><path d="M53.71,84.35c4.09-5.59,10.8-6.12,16.05-10.08,4.32-3.26,6.48-8.48,10.31-12.2,5-4.84,11.94-6.6,18.53-8,3.15-.69,6.31-1.34,9.47-2,1.78-.39,3.55-.81,5.34-1.16,1.28-.25,1.66-1.43.11.06-3.71,3.57-5.83,8.19-9,12.18A38.69,38.69,0,0,1,90,74.59c-11.37,4.9-25-.07-35.55,7.3-.31.22,0,.73.31.52,11.5-7.13,25.83-1.36,37.8-7.55a38.71,38.71,0,0,0,12.35-10.38c3.68-4.6,5.8-11.54,11.31-14.26.41-.2.11-.79-.3-.7C108.6,51.06,101.22,52.39,94,54.3c-5,1.34-10,3.21-13.91,6.77-5,4.55-7.3,11.05-13.46,14.38C61.89,78,56.41,79.22,53.58,84.27c0,.09.07.15.13.08Z" transform="translate(0.3 0)" fill="url(#White_Black-134)"/><path d="M116,49.81c-9.11,2-17,8.29-23.31,14.87-8.65,9-19.67,12-31.79,13.64-.52.07-.56.84,0,.85,9.3,0,20.25-2,27.5-8.28,4-3.43,7.2-7.62,11.25-11A72.14,72.14,0,0,1,116,50c.09,0,0-.17-.07-.15Z" transform="translate(0.3 0)" fill="url(#White_Black-135)"/><path d="M114.19,51.31a36.84,36.84,0,0,0-22.6,8.39c-4.24,3.54-7.34,8.18-11.91,11.37-4.83,3.37-10.34,5.1-15.8,7.12a.16.16,0,0,0,.08.3A42.27,42.27,0,0,0,86.17,66.05c7.74-8.39,16.38-13.87,28-14.67a0,0,0,1,0,0-.07Z" transform="translate(0.3 0)" fill="url(#White_Black-136)"/><path d="M113.17,50.84c-8.9.73-18.53,2.4-26,7.56-9,6.2-13.22,17.79-25,19.78-.2,0-.16.37,0,.36,9.41-.59,14.47-9.24,20.37-15.4C90.9,54.48,102,53.15,113.19,51a.09.09,0,0,0,0-.17Z" transform="translate(0.3 0)" fill="url(#White_Black-137)"/><path d="M113.81,51.45c-6.55,1.69-9.55,7.76-13.32,12.77C93.61,73.37,82.06,74.74,71.72,77.5a.17.17,0,0,0,0,.34c8-.25,18-2.93,24.53-7.86,7-5.31,8.89-15,17.53-18.46,0,0,0-.08,0-.07Z" transform="translate(0.3 0)" fill="url(#White_Black-138)"/><path d="M31.51,129.32a12.67,12.67,0,0,1,5.33-2c5.71-.78,9.95,2.43,15.36,2.58a24.53,24.53,0,0,0,11.45-3A41.92,41.92,0,0,0,74,119.47c-1,1-4,1.73-5.38,2.12a26.2,26.2,0,0,1-5.43,1c-3.77.25-7-.91-10.64-1.09-7.39-.38-15.57,2.85-21,7.87" transform="translate(0.3 0)" fill="url(#White_Black-139)"/><path d="M31.57,129.72c3.72-5,9.72-5.49,14.43-9,3.9-3,5.89-7.64,9.33-11,4.41-4.32,10.65-5.91,16.49-7.21,2.91-.65,5.82-1.24,8.73-1.87.86-.18,4.61-1.45,5.42-1.17.26.09,1.33-2.44-.73.37-5.77,7.9-11.27,16.79-20.57,21-10.36,4.69-22.83,0-32.47,6.74-.29.19,0,.66.28.47,10.4-6.38,23.29-1.24,34.09-6.81a34.81,34.81,0,0,0,11.16-9.42C81,107.58,82.92,101.46,87.86,99c.36-.19.1-.72-.27-.64-10.43,2.22-24.65,3-32.71,10.86-4.18,4.09-6.26,9.59-11.63,12.51-4.34,2.36-9.15,3.43-11.79,8-.05.07.06.13.11.06Z" transform="translate(0.3 0)" fill="url(#White_Black-140)"/><path d="M87.66,98.6c-8.22,1.88-15.27,7.45-21,13.41-7.83,8.12-17.84,10.81-28.75,12.29-.43.06-.32.75.1.76,8.64,0,18.75-2,25.32-8,3.42-3.11,6.3-6.71,9.89-9.65a65.7,65.7,0,0,1,14.5-8.71c.08,0,0-.16-.06-.14Z" transform="translate(0.3 0)" fill="url(#White_Black-141)"/><path d="M86.07,100a33.24,33.24,0,0,0-20.68,7.84C61.63,111,58.83,115.12,54.71,118c-4.28,2.92-9.15,4.46-14,6.22a.14.14,0,0,0,.07.28,37.83,37.83,0,0,0,19.48-10.63c7.26-7.74,14.86-13,25.78-13.8.05,0,.05-.07,0-.06Z" transform="translate(0.3 0)" fill="url(#White_Black-142)"/><path d="M85.15,99.53c-8,.68-16.5,2.12-23.23,6.67-8.23,5.57-12,16.13-22.69,18-.19,0-.15.34,0,.33,8.33-.61,12.82-8,18-13.53,7.54-8,17.61-9.35,27.87-11.28.08,0,.06-.15,0-.15Z" transform="translate(0.3 0)" fill="url(#White_Black-143)"/><path d="M85.73,100.08c-6.18,1.68-8.8,7.42-12.48,12.08-6.15,7.79-16.44,9-25.45,11.39-.17,0-.14.32,0,.31,7.07-.25,15.6-2.51,21.5-6.62,6.74-4.7,8.41-13.82,16.4-17.09,0,0,0-.08,0-.07Z" transform="translate(0.3 0)" fill="url(#White_Black-144)"/><path d="M99.67,40.38c2.48-5.91,8.4-10.66,14.35-13.06,11.91-4.79,25.77.32,38.14-3.12-6.7,4.56-13.67,9.24-21.66,10.59-5.28.89-10.68.27-16,.47s-11,1.37-14.81,5.12" transform="translate(0.3 0)" fill="url(#White_Black-145)"/><path d="M100.87,39.76a44.94,44.94,0,0,1,6.53-15.93c5.26-7.94,13.5-12.08,22-15.64q3-1.26,6.09-2.37a21.75,21.75,0,0,0,2.54-.88c1.08-.56.13-.51.21-.58a28.81,28.81,0,0,0-6.45,8.48c-2.55,4.85-5.36,8.75-10,11.87-3.69,2.5-7.7,4.47-11.37,7-.26.19,0,.61.26.45,5.51-3.18,11.65-5.84,16.18-10.43,5.2-5.26,6.41-13.5,13-17.45a.41.41,0,0,0-.32-.75c-9.8,3.13-21.47,7-28.82,14.58-5.59,5.74-9,13.69-10.12,21.57,0,.11.15.17.17,0Z" transform="translate(0.3 0)" fill="url(#White_Black-146)"/><path d="M138.3,4.74C129.2,8.47,124.57,17,116.11,21.43c-6.88,3.59-12.92,9.09-14.58,17-.11.56.7,1,1,.41,2-3.93,3.94-7.71,7-10.89,2.94-3,6.64-4.77,10-7.26,2.78-2.08,4.73-4.79,7.07-7.3a42.81,42.81,0,0,1,11.72-8.62s0,0,0,0Z" transform="translate(0.3 0)" fill="url(#White_Black-147)"/><path d="M135.2,5.37c-3.69,2.61-7.9,3.94-11.8,6.14-4.27,2.42-7.1,6.53-11.07,9.36C106.2,25.25,101.59,31,100.7,38.73c0,.31.47.37.54.07,1.13-4.95,2.88-9.41,6.41-13.19,2.55-2.72,5.89-4.44,8.55-7,3.22-3.13,6-6,10.12-7.95,3.16-1.53,6.31-2.79,8.94-5.18,0,0,0-.11-.06-.08Z" transform="translate(0.3 0)" fill="url(#White_Black-148)"/><path d="M136.91,6.36c-3,2.25-5.91,4.56-7.92,7.81-2.76,4.47-5.3,7.64-10,10.26-5.88,3.3-12.68,5.44-16.54,11.34-.06.1.09.18.16.09,4.87-6.51,12.74-8.35,19.2-12.7a19.83,19.83,0,0,0,5.28-5c3.12-4.5,5.44-8.31,9.82-11.78,0,0,0,0,0,0Z" transform="translate(0.3 0)" fill="url(#White_Black-149)"/><path d="M142,16.33c-8.52,4.78-17,9-26.34,11.86a.18.18,0,0,0,.09.34c9.62-1.59,18.18-7,26.33-12.07a.08.08,0,0,0-.08-.13Z" transform="translate(0.3 0)" fill="url(#White_Black-150)"/><path d="M142.59,15.14a1,1,0,0,0-1.47.88,1.28,1.28,0,0,0,2,1.09c1.1-.78.33-2.22-.73-2.51s-2.51.45-1.9,1.72,2.52,1.8,3.28.58-.56-2.41-1.77-2.44a1.69,1.69,0,0,0-1.5,2.69,2.25,2.25,0,0,0,3.23.28c1-1.12.12-2.47-1.07-2.91a1.8,1.8,0,0,0-2.54,1.79c.18,1.31,1.86,2,3.05,1.78a2.2,2.2,0,0,0,1.41-3.28c-1.71-2.93-6.92-.21-4.82,2.76a3.06,3.06,0,0,0,4.23.27,2.5,2.5,0,0,0-.15-4,2.91,2.91,0,0,0-4.35,1.25,2.48,2.48,0,0,0,2.46,3.37,2.15,2.15,0,0,0,1.32-3.74c-1-.81-2.88-.24-2.75,1.23a.66.66,0,0,0,.83.63l-.07,0-.53-.69q.08.22.06,0c0-.36.23-.61.71-.74l.84.23.12.14c.08.28.15.56.23.85q-1,1.31-.87-1.17h-.17l.74.43.15.32c-.08.27-.15.54-.22.81-.15,0-.17,0,0,0a.36.36,0,0,1-.4-.22v-.81c.47-.22.58-.36.35-.42-.57-.19-.72.35-.46,1.62.13.65.94-.85.42-1.42l.36.85c-.27.7-.55.77-.85.23l.12-.9-.12.2,1-.57a.54.54,0,0,1-.57-.22l.27,1,.06-.17-.48.62c-.2.12-.31,0-.32-.38l.42-.56.49-.26c.11,0,.12-.15,0-.18Z" transform="translate(0.3 0)" fill="url(#White_Black-151)"/><path d="M135.09,16.19c-3.62,4.14-7.93,6.5-12.72,9-.2.1-.06.4.15.35,5.1-1.26,9.55-5.18,12.64-9.27,0,0,0-.1-.07-.06Z" transform="translate(0.3 0)" fill="url(#White_Black-152)"/><path d="M134.53,16a.74.74,0,0,0-.21.07c-.37.16-.27.67,0,.85a2.39,2.39,0,0,0,.34.21.75.75,0,0,0,1.11-.63,1.06,1.06,0,0,0-2.09-.36c-.31,1.25,1.5,1.72,2,.62a1,1,0,0,0-1.7-1.11c-.89,1.14.74,2.15,1.74,1.48a.91.91,0,0,0,.18-1.41,1.44,1.44,0,0,0-1.78-.2.86.86,0,0,0,.66,1.57l0,0V15.54l.14,0,.53.41-.1-.16.09.68,0-.12-.41.52.11-.07-.67.09.11,0-.52-.4.07.13-.09-.66,0,.09.5-.39-.15,0,.64.09.09.08v.82l.1-.21-.48.37.23-.06-.6-.08.19.14-.36-.47c0,.08.05.16.08.23l.33-.83c-.32.18.11.09-.13.14Z" transform="translate(0.3 0)" fill="url(#White_Black-153)"/></svg>